<svg id="Layer_1" data-name="Layer 1" xmlns="http://www.w3.org/2000/svg" viewBox="0 0 961.36 181"><defs><style>.cls-1{fill:#051937;}</style></defs><title>Logo_mb</title><path class="cls-1" d="M3110,876.17V817h-25v70.24A74.5,74.5,0,0,0,3110,876.17Z" transform="translate(-3060.64 -817)"/><path class="cls-1" d="M3184.39,853.09c-25.19,74.65-86.78,88.9-89.36,89.46l-10,2.07V998h25V964.06a155.26,155.26,0,0,0,74.32-56.46" transform="translate(-3060.64 -817)"/><path class="cls-1" d="M3060.64,930.29c21.08-.47,49.17-6.5,70.72-24.53A92.63,92.63,0,0,0,3160,862.45V817h-25v40.33c-14,41-54.38,47.35-74.31,47.95" transform="translate(-3060.64 -817)"/><path class="cls-1" d="M3135,967.2V998h25V949.5C3151,956.92,3143,962.72,3135,967.2Z" transform="translate(-3060.64 -817)"/><path class="cls-1" d="M3318,868v82h-11V913h-46v37h-11V868h11v35h46V868h11Z" transform="translate(-3060.64 -817)"/><path class="cls-1" d="M3404,868v10h-42v25h38v10h-38v28h42v9h-53V868h53Z" transform="translate(-3060.64 -817)"/><path class="cls-1" d="M3434,868h26.54c24.26,0,40.15,16.11,40.15,41s-15.89,41-40.15,41H3434V868Zm26.41,73c18.72,0,29.77-12.26,29.77-31.43S3479.13,878,3460.41,878H3445v63h15.41Z" transform="translate(-3060.64 -817)"/><path class="cls-1" d="M3567,919v-9h30v5.24c0,21.83-14,35.94-34.21,35.94-21.56,0-38-16.51-38-42.07s16.58-42.17,37.73-42.17c17.65,0,29.24,10.06,32.62,25.06h-10.64c-3.5-9-10.25-15.61-22-15.61-16,0-27.08,13.1-27.08,32.67S3546.37,942,3562.81,942c14.42,0,22.91-9,24.12-23H3567Z" transform="translate(-3060.64 -817)"/><path class="cls-1" d="M3678,868v10h-42v25h38v10h-38v28h42v9h-53V868h53Z" transform="translate(-3060.64 -817)"/><path class="cls-1" d="M3743.49,868l32.34,82h-10.78l-9.57-25H3721.4L3712,950h-10.78l32.34-82h10Zm-18.59,48h26.95l-13.47-34.88Z" transform="translate(-3060.64 -817)"/><path class="cls-1" d="M3859.37,927c0,14.91-10.51,23-27.49,23H3802V868h27.19c17.11,0,27.35,7.71,27.35,21.82,0,9.72-5.67,15.77-12.13,17.77A19.83,19.83,0,0,1,3859.37,927Zm-30.18-23c11,0,17.11-4.71,17.11-13.63S3840.23,877,3829.19,877H3812v27h17.19ZM3812,941h19.88c11.19,0,17.12-5.48,17.12-14s-5.93-14-17.12-14H3812v28Z" transform="translate(-3060.64 -817)"/><path class="cls-1" d="M3888,868h11v73h42v9h-53V868Z" transform="translate(-3060.64 -817)"/><path class="cls-1" d="M4022,868v10h-42v25h38v10h-38v28h42v9h-53V868h53Z" transform="translate(-3060.64 -817)"/></svg>
